<svg width="579" height="588" viewBox="0 0 579 588" fill="none" xmlns="http://www.w3.org/2000/svg">
<path d="M389.452 92.2557V211.529H216.802V92.2557C216.802 44.5797 255.451 5.93072 303.127 5.93072C350.803 5.93072 389.452 44.5797 389.452 92.2557Z" stroke="url(#paint0_linear_52_71)" stroke-width="11.8614"/>
<path d="M146.653 157.443C149.491 143.67 162.205 134.214 176.213 135.459L416.602 156.838L471.594 158.551C487.27 159.039 499.409 172.444 498.345 188.092L475.311 526.908C474.324 541.431 462.255 552.707 447.698 552.707L99.1942 552.708C81.6639 552.708 68.5498 536.618 72.0865 519.448L146.653 157.443Z" fill="url(#paint1_linear_52_71)"/>
<path d="M85.013 153.511C86.0641 139.042 98.1096 127.84 112.617 127.84H410.088C424.448 127.84 436.423 138.823 437.662 153.13L469.773 524.13C471.172 540.297 458.426 554.193 442.199 554.193H85.6665C69.5912 554.193 56.8978 540.544 58.0625 524.511L85.013 153.511Z" fill="url(#paint2_linear_52_71)"/>
<path d="M347.276 92.2557V211.529H174.626V92.2557C174.626 44.5797 213.275 5.93072 260.951 5.93072C308.627 5.93072 347.276 44.5797 347.276 92.2557Z" stroke="url(#paint3_linear_52_71)" stroke-width="11.8614"/>
<rect x="191.102" y="199.008" width="156.835" height="25.0408" fill="url(#paint4_linear_52_71)"/>
<circle cx="175.285" cy="209.553" r="25.0408" fill="#154449"/>
<circle cx="347.935" cy="209.553" r="25.0408" fill="#154449"/>
<path d="M183.537 309.326C183.537 306.558 184.582 304.252 186.673 302.407C188.764 300.5 191.378 299.547 194.515 299.547C196.975 299.547 198.913 300.192 200.327 301.484C201.803 302.714 202.541 304.344 202.541 306.374C202.541 309.08 201.496 311.386 199.405 313.293C197.375 315.138 194.792 316.06 191.655 316.06C189.133 316.06 187.135 315.445 185.658 314.215C184.244 312.924 183.537 311.294 183.537 309.326ZM198.39 322.334L189.256 373.812H173.481L182.522 322.334H198.39ZM232.071 321.688C238.898 321.688 244.28 323.533 248.216 327.223C252.213 330.852 254.243 335.865 254.305 342.261H237.514C237.391 340.047 236.684 338.325 235.392 337.095C234.101 335.865 232.286 335.25 229.949 335.25C227.181 335.25 224.691 336.357 222.476 338.571C220.324 340.723 218.878 343.891 218.14 348.073C217.894 349.303 217.771 350.595 217.771 351.948C217.771 354.9 218.479 357.145 219.893 358.683C221.308 360.159 223.184 360.897 225.521 360.897C227.858 360.897 229.888 360.282 231.61 359.052C233.332 357.822 234.623 356.099 235.484 353.885H252.183C249.907 360.282 246.186 365.325 241.02 369.015C235.915 372.644 230.041 374.458 223.399 374.458C216.757 374.458 211.436 372.582 207.439 368.831C203.502 365.017 201.534 359.79 201.534 353.147C201.534 351.548 201.75 349.395 202.18 346.689C203.103 341.585 204.979 337.156 207.808 333.404C210.637 329.591 214.143 326.701 218.325 324.732C222.507 322.703 227.089 321.688 232.071 321.688ZM333.104 321.78C338.516 321.78 342.699 323.226 345.651 326.116C348.603 329.007 350.079 333.097 350.079 338.386C350.079 340.477 349.925 342.323 349.618 343.922L344.359 373.812H328.583L333.565 345.767C333.688 345.213 333.75 344.383 333.75 343.276C333.75 340.754 333.012 338.817 331.536 337.464C330.121 336.111 328.122 335.434 325.539 335.434C322.464 335.434 319.85 336.387 317.697 338.294C315.606 340.139 314.253 342.753 313.638 346.136L313.546 346.413V346.505L308.656 373.812H292.973L297.862 345.767C298.047 344.844 298.139 343.983 298.139 343.184C298.139 340.723 297.401 338.817 295.925 337.464C294.51 336.111 292.511 335.434 289.928 335.434C286.853 335.434 284.208 336.418 281.994 338.386C279.842 340.293 278.458 342.999 277.843 346.505L273.046 373.812H257.178L266.219 322.334H282.087L280.518 331.098C282.425 328.207 284.916 325.932 287.991 324.271C291.066 322.611 294.449 321.78 298.139 321.78C302.075 321.78 305.397 322.703 308.103 324.548C310.809 326.332 312.654 328.915 313.638 332.297C315.914 329.099 318.774 326.547 322.218 324.64C325.662 322.734 329.291 321.78 333.104 321.78Z" fill="#163F59"/>
<path d="M186.673 302.407L189.289 305.371L189.313 305.35L189.337 305.328L186.673 302.407ZM200.327 301.484L197.661 304.404L197.727 304.464L197.796 304.521L200.327 301.484ZM199.405 313.293L202.064 316.218L202.068 316.214L199.405 313.293ZM185.658 314.215L182.993 317.135L183.059 317.195L183.127 317.253L185.658 314.215ZM198.39 322.334L202.283 323.025L203.107 318.38H198.39V322.334ZM189.256 373.812V377.766H192.57L193.149 374.503L189.256 373.812ZM173.481 373.812L169.586 373.129L168.772 377.766H173.481V373.812ZM182.522 322.334V318.38H179.202L178.628 321.65L182.522 322.334ZM187.49 309.326C187.49 307.702 188.041 306.472 189.289 305.371L184.057 299.442C181.123 302.031 179.583 305.414 179.583 309.326H187.49ZM189.337 305.328C190.619 304.16 192.248 303.5 194.515 303.5V295.593C190.508 295.593 186.91 296.84 184.009 299.485L189.337 305.328ZM194.515 303.5C196.278 303.5 197.164 303.95 197.661 304.404L202.993 298.564C200.661 296.435 197.672 295.593 194.515 295.593V303.5ZM197.796 304.521C198.314 304.953 198.587 305.442 198.587 306.374H206.495C206.495 303.246 205.292 300.475 202.858 298.447L197.796 304.521ZM198.587 306.374C198.587 307.912 198.053 309.175 196.741 310.371L202.068 316.214C204.939 313.597 206.495 310.248 206.495 306.374H198.587ZM196.745 310.367C195.548 311.456 193.959 312.107 191.655 312.107V320.014C195.624 320.014 199.202 318.82 202.064 316.218L196.745 310.367ZM191.655 312.107C189.766 312.107 188.759 311.652 188.19 311.178L183.127 317.253C185.51 319.238 188.501 320.014 191.655 320.014V312.107ZM188.324 311.295C187.755 310.776 187.49 310.218 187.49 309.326H179.583C179.583 312.37 180.732 315.071 182.993 317.135L188.324 311.295ZM194.497 321.643L185.363 373.122L193.149 374.503L202.283 323.025L194.497 321.643ZM189.256 369.859H173.481V377.766H189.256V369.859ZM177.375 374.496L186.416 323.018L178.628 321.65L169.586 373.129L177.375 374.496ZM182.522 326.288H198.39V318.38H182.522V326.288ZM248.216 327.223L245.512 330.108L245.535 330.13L245.558 330.151L248.216 327.223ZM254.305 342.261V346.215H258.297L258.258 342.223L254.305 342.261ZM237.514 342.261L233.566 342.48L233.774 346.215H237.514V342.261ZM235.392 337.095L238.119 334.232L238.119 334.232L235.392 337.095ZM222.476 338.571L219.681 335.775L219.681 335.775L222.476 338.571ZM218.14 348.073L222.017 348.849L222.026 348.805L222.034 348.76L218.14 348.073ZM219.893 358.683L216.984 361.36L217.011 361.389L217.039 361.418L219.893 358.683ZM231.61 359.052L229.312 355.834L229.312 355.834L231.61 359.052ZM235.484 353.885V349.931H232.78L231.799 352.452L235.484 353.885ZM252.183 353.885L255.908 355.211L257.786 349.931H252.183V353.885ZM241.02 369.015L243.311 372.238L243.318 372.233L241.02 369.015ZM207.439 368.831L204.688 371.67L204.71 371.692L204.733 371.714L207.439 368.831ZM202.18 346.689L198.289 345.986L198.282 346.027L198.275 346.068L202.18 346.689ZM207.808 333.404L210.965 335.785L210.974 335.773L210.983 335.76L207.808 333.404ZM218.325 324.732L220.008 328.31L220.03 328.3L220.051 328.29L218.325 324.732ZM232.071 325.642C238.171 325.642 242.488 327.273 245.512 330.108L250.92 324.339C246.071 319.793 239.625 317.734 232.071 317.734V325.642ZM245.558 330.151C248.59 332.902 250.298 336.783 250.351 342.299L258.258 342.223C258.188 334.946 255.837 328.802 250.873 324.296L245.558 330.151ZM254.305 338.307H237.514V346.215H254.305V338.307ZM241.462 342.042C241.297 339.079 240.306 336.314 238.119 334.232L232.665 339.958C233.062 340.335 233.485 341.015 233.566 342.48L241.462 342.042ZM238.119 334.232C235.886 332.105 232.976 331.296 229.949 331.296V339.203C231.596 339.203 232.315 339.624 232.665 339.958L238.119 334.232ZM229.949 331.296C225.992 331.296 222.53 332.926 219.681 335.775L225.272 341.367C226.851 339.788 228.371 339.203 229.949 339.203V331.296ZM219.681 335.775C216.768 338.688 215.072 342.711 214.247 347.386L222.034 348.76C222.685 345.071 223.879 342.759 225.272 341.367L219.681 335.775ZM214.263 347.298C213.962 348.802 213.818 350.355 213.818 351.948H221.725C221.725 350.835 221.826 349.804 222.017 348.849L214.263 347.298ZM213.818 351.948C213.818 355.483 214.664 358.838 216.984 361.36L222.803 356.006C222.293 355.451 221.725 354.318 221.725 351.948H213.818ZM217.039 361.418C219.308 363.786 222.275 364.851 225.521 364.851V356.943C224.093 356.943 223.307 356.531 222.748 355.947L217.039 361.418ZM225.521 364.851C228.592 364.851 231.445 364.028 233.908 362.269L229.312 355.834C228.33 356.535 227.124 356.943 225.521 356.943V364.851ZM233.908 362.269C236.331 360.538 238.065 358.159 239.169 355.318L231.799 352.452C231.182 354.04 230.333 355.105 229.312 355.834L233.908 362.269ZM235.484 357.839H252.183V349.931H235.484V357.839ZM248.458 352.56C246.433 358.25 243.184 362.611 238.722 365.798L243.318 372.233C249.189 368.039 253.381 362.313 255.908 355.211L248.458 352.56ZM238.729 365.793C234.335 368.916 229.273 370.504 223.399 370.504V378.412C230.81 378.412 237.495 376.372 243.311 372.238L238.729 365.793ZM223.399 370.504C217.537 370.504 213.26 368.872 210.144 365.948L204.733 371.714C209.613 376.293 215.976 378.412 223.399 378.412V370.504ZM210.19 365.991C207.181 363.076 205.488 358.963 205.488 353.147H197.581C197.581 360.617 199.824 366.959 204.688 371.67L210.19 365.991ZM205.488 353.147C205.488 351.852 205.667 349.934 206.085 347.311L198.275 346.068C197.832 348.857 197.581 351.245 197.581 353.147H205.488ZM206.071 347.392C206.895 342.832 208.545 338.993 210.965 335.785L204.651 331.024C201.412 335.319 199.31 340.337 198.289 345.986L206.071 347.392ZM210.983 335.76C213.434 332.456 216.433 329.992 220.008 328.31L216.641 321.155C211.852 323.409 207.839 326.726 204.632 331.049L210.983 335.76ZM220.051 328.29C223.657 326.539 227.643 325.642 232.071 325.642V317.734C226.535 317.734 221.357 318.866 216.599 321.175L220.051 328.29ZM345.651 326.116L348.417 323.291L348.417 323.291L345.651 326.116ZM349.618 343.922L345.735 343.175L345.729 343.206L345.724 343.237L349.618 343.922ZM344.359 373.812V377.766H347.678L348.253 374.498L344.359 373.812ZM328.583 373.812L324.691 373.121L323.865 377.766H328.583V373.812ZM333.565 345.767L329.706 344.909L329.687 344.992L329.672 345.075L333.565 345.767ZM331.536 337.464L328.803 340.321L328.833 340.35L328.864 340.378L331.536 337.464ZM317.697 338.294L320.313 341.259L320.319 341.254L317.697 338.294ZM313.638 346.136L317.389 347.386L317.478 347.12L317.528 346.843L313.638 346.136ZM313.546 346.413L309.795 345.162L309.592 345.771V346.413H313.546ZM313.546 346.505L317.438 347.202L317.5 346.856V346.505H313.546ZM308.656 373.812V377.766H311.965L312.548 374.509L308.656 373.812ZM292.973 373.812L289.078 373.133L288.27 377.766H292.973V373.812ZM297.862 345.767L293.985 344.991L293.976 345.039L293.967 345.088L297.862 345.767ZM295.925 337.464L293.192 340.321L293.222 340.35L293.253 340.378L295.925 337.464ZM281.994 338.386L284.616 341.346L284.621 341.341L281.994 338.386ZM277.843 346.505L281.737 347.189L281.737 347.188L277.843 346.505ZM273.046 373.812V377.766H276.365L276.94 374.497L273.046 373.812ZM257.178 373.812L253.283 373.129L252.469 377.766H257.178V373.812ZM266.219 322.334V318.38H262.899L262.324 321.65L266.219 322.334ZM282.087 322.334L285.979 323.03L286.811 318.38H282.087V322.334ZM280.518 331.098L276.626 330.402L283.819 333.275L280.518 331.098ZM287.991 324.271L289.87 327.75L289.87 327.75L287.991 324.271ZM308.103 324.548L305.875 327.815L305.901 327.832L305.927 327.849L308.103 324.548ZM313.638 332.297L309.842 333.402L312.123 341.246L316.86 334.59L313.638 332.297ZM322.218 324.64L320.303 321.181L320.303 321.181L322.218 324.64ZM333.104 325.734C337.814 325.734 340.879 326.977 342.885 328.941L348.417 323.291C344.518 319.474 339.218 317.826 333.104 317.826V325.734ZM342.885 328.941C344.879 330.895 346.125 333.847 346.125 338.386H354.033C354.033 332.347 352.327 327.119 348.417 323.291L342.885 328.941ZM346.125 338.386C346.125 340.294 345.984 341.88 345.735 343.175L353.5 344.668C353.866 342.765 354.033 340.661 354.033 338.386H346.125ZM345.724 343.237L340.465 373.127L348.253 374.498L353.512 344.607L345.724 343.237ZM344.359 369.859H328.583V377.766H344.359V369.859ZM332.476 374.504L337.458 346.458L329.672 345.075L324.691 373.121L332.476 374.504ZM337.425 346.624C337.645 345.636 337.704 344.453 337.704 343.276H329.796C329.796 344.312 329.732 344.791 329.706 344.909L337.425 346.624ZM337.704 343.276C337.704 339.953 336.702 336.836 334.207 334.549L328.864 340.378C329.321 340.798 329.796 341.555 329.796 343.276H337.704ZM334.269 334.607C331.907 332.348 328.805 331.48 325.539 331.48V339.388C327.439 339.388 328.335 339.873 328.803 340.321L334.269 334.607ZM325.539 331.48C321.571 331.48 318.004 332.74 315.076 335.334L320.319 341.254C321.696 340.034 323.357 339.388 325.539 339.388V331.48ZM315.081 335.329C312.18 337.889 310.484 341.38 309.748 345.429L317.528 346.843C318.022 344.126 319.032 342.389 320.313 341.259L315.081 335.329ZM309.887 344.885L309.795 345.162L317.297 347.663L317.389 347.386L309.887 344.885ZM309.592 346.413V346.505H317.5V346.413H309.592ZM309.654 345.808L304.764 373.116L312.548 374.509L317.438 347.202L309.654 345.808ZM308.656 369.859H292.973V377.766H308.656V369.859ZM296.868 374.492L301.757 346.446L293.967 345.088L289.078 373.133L296.868 374.492ZM301.739 346.542C301.966 345.408 302.093 344.284 302.093 343.184H294.185C294.185 343.682 294.127 344.281 293.985 344.991L301.739 346.542ZM302.093 343.184C302.093 339.888 301.071 336.818 298.597 334.549L293.253 340.378C293.731 340.816 294.185 341.559 294.185 343.184H302.093ZM298.658 334.607C296.297 332.348 293.195 331.48 289.928 331.48V339.388C291.828 339.388 292.724 339.873 293.192 340.321L298.658 334.607ZM289.928 331.48C285.925 331.48 282.335 332.793 279.368 335.431L284.621 341.341C286.082 340.043 287.781 339.388 289.928 339.388V331.48ZM279.373 335.427C276.404 338.056 274.68 341.65 273.948 345.822L281.737 347.188C282.235 344.348 283.28 342.53 284.616 341.346L279.373 335.427ZM273.949 345.821L269.151 373.128L276.94 374.497L281.737 347.189L273.949 345.821ZM273.046 369.859H257.178V377.766H273.046V369.859ZM261.072 374.496L270.113 323.018L262.324 321.65L253.283 373.129L261.072 374.496ZM266.219 326.288H282.087V318.38H266.219V326.288ZM278.195 321.637L276.626 330.402L284.41 331.795L285.979 323.03L278.195 321.637ZM283.819 333.275C285.363 330.934 287.363 329.104 289.87 327.75L286.112 320.792C282.469 322.76 279.487 325.481 277.218 328.921L283.819 333.275ZM289.87 327.75C292.335 326.419 295.067 325.734 298.139 325.734V317.826C293.831 317.826 289.797 318.802 286.112 320.792L289.87 327.75ZM298.139 325.734C301.444 325.734 303.949 326.501 305.875 327.815L310.33 321.281C306.844 318.905 302.707 317.826 298.139 317.826V325.734ZM305.927 327.849C307.779 329.07 309.095 330.836 309.842 333.402L317.434 331.193C316.213 326.993 313.839 323.593 310.279 321.247L305.927 327.849ZM316.86 334.59C318.791 331.875 321.204 329.72 324.133 328.099L320.303 321.181C316.343 323.373 313.036 326.324 310.416 330.005L316.86 334.59ZM324.133 328.099C327.011 326.506 329.983 325.734 333.104 325.734V317.826C328.599 317.826 324.313 318.961 320.303 321.181L324.133 328.099Z" fill="white"/>
<path d="M488.296 352.881C599.003 181.021 482.585 107.305 410.537 91.9287C413.7 72.9487 406.144 50.1933 401.971 41.188C520.058 35.3891 565.834 106.865 573.962 143.328C597.157 237.693 526.516 322.348 488.296 352.881Z" fill="url(#paint5_linear_52_71)"/>
<mask id="mask0_52_71" style="mask-type:alpha" maskUnits="userSpaceOnUse" x="57" y="127" width="413" height="428">
<path d="M85.013 153.511C86.0641 139.042 98.1096 127.84 112.617 127.84H410.088C424.448 127.84 436.423 138.823 437.662 153.13L469.773 524.13C471.172 540.297 458.426 554.193 442.199 554.193H85.6665C69.5912 554.193 56.8978 540.544 58.0625 524.511L85.013 153.511Z" fill="url(#paint6_linear_52_71)"/>
</mask>
<g mask="url(#mask0_52_71)">
<path d="M207.575 517.291C123.227 522.563 72.7056 474.019 62.6014 452.053L37.5605 474.458C69.7183 541.41 157.054 537.939 192.418 535.084C291.527 539.828 401.531 452.273 444.145 407.902C400.916 480.653 293.68 549.142 265.564 563.419H305.102C375.744 527.571 441.069 445.244 459.96 412.515L456.006 362.434L454.688 365.728C374.03 480.126 258.974 513.777 207.575 517.291Z" fill="white"/>
</g>
<path d="M162.117 532.446C-1.30719 505.033 31.202 354.963 67.8846 283.355C12.5312 350.307 -0.42859 419.762 0.010676 446.121C0.010676 565.79 105.446 590.435 158.163 587.799C325.805 571.984 421.312 456.884 448.11 401.311C333.713 527.306 209.783 541.232 162.117 532.446Z" fill="#174348"/>
<path d="M302.468 543.649C229.717 582.66 169.795 589.337 148.928 587.8V563.418L196.374 548.261L284.675 535.082L302.468 543.649Z" fill="#174348"/>
<defs>
<linearGradient id="paint0_linear_52_71" x1="303.127" y1="217.46" x2="314.329" y2="-71.1687" gradientUnits="userSpaceOnUse">
<stop stop-color="#085255"/>
<stop offset="1" stop-color="#191919"/>
</linearGradient>
<linearGradient id="paint1_linear_52_71" x1="462.595" y1="140.362" x2="436.236" y2="583.848" gradientUnits="userSpaceOnUse">
<stop stop-color="#1A474D"/>
<stop offset="1" stop-color="#1E2825"/>
</linearGradient>
<linearGradient id="paint2_linear_52_71" x1="190.336" y1="92.2555" x2="87.5364" y2="581.211" gradientUnits="userSpaceOnUse">
<stop stop-color="#AACB0B"/>
<stop offset="1" stop-color="#85AB00"/>
</linearGradient>
<linearGradient id="paint3_linear_52_71" x1="260.951" y1="262.929" x2="260.951" y2="-26.3588" gradientUnits="userSpaceOnUse">
<stop stop-color="#085255"/>
<stop offset="1" stop-color="#191919"/>
</linearGradient>
<linearGradient id="paint4_linear_52_71" x1="237.651" y1="232.097" x2="172.948" y2="289.184" gradientUnits="userSpaceOnUse">
<stop stop-color="#A3C409"/>
<stop offset="0.852773" stop-color="#A0C208"/>
<stop offset="1" stop-color="#A0C208"/>
</linearGradient>
<linearGradient id="paint5_linear_52_71" x1="411.196" y1="-0.000631398" x2="578.575" y2="272.813" gradientUnits="userSpaceOnUse">
<stop stop-color="#12535B"/>
<stop offset="1" stop-color="#1E4347"/>
</linearGradient>
<linearGradient id="paint6_linear_52_71" x1="190.336" y1="92.2555" x2="87.5364" y2="581.211" gradientUnits="userSpaceOnUse">
<stop stop-color="#AACB0B"/>
<stop offset="1" stop-color="#85AB00"/>
</linearGradient>
</defs>
</svg>
