<?xml version="1.0"?>
<svg xmlns="http://www.w3.org/2000/svg" xmlns:xlink="http://www.w3.org/1999/xlink" xmlns:svgjs="http://svgjs.com/svgjs" version="1.1" width="512" height="512" x="0" y="0" viewBox="0 0 512 512" style="enable-background:new 0 0 512 512" xml:space="preserve" class=""><g><path xmlns="http://www.w3.org/2000/svg" d="m450 285v-270c0-8.285156-6.714844-15-15-15h-420c-8.285156 0-15 6.714844-15 15v270c0 8.285156 6.714844 15 15 15h105v15c0 8.285156 6.714844 15 15 15h45v167c0 8.285156 6.714844 15 15 15h60c8.285156 0 15-6.714844 15-15v-167h45c8.285156 0 15-6.714844 15-15v-15h105c8.285156 0 15-6.714844 15-15zm-210 197h-30v-152h30zm60-182h-150v-30h150zm120-30h-90v-15c0-8.285156-6.714844-15-15-15h-180c-8.285156 0-15 6.714844-15 15v15h-90v-240h390zm0 0" fill="#848484" data-original="#000000" style="" class=""/><path xmlns="http://www.w3.org/2000/svg" d="m225 210c8.285156 0 15-6.714844 15-15v-120c0-8.285156-6.714844-15-15-15s-15 6.714844-15 15v120c0 8.285156 6.714844 15 15 15zm0 0" fill="#848484" data-original="#000000" style="" class=""/><path xmlns="http://www.w3.org/2000/svg" d="m105 210h30c24.8125 0 45-20.1875 45-45 0-11.515625-4.355469-22.03125-11.496094-30 7.144532-7.96875 11.496094-18.484375 11.496094-30 0-24.8125-20.1875-45-45-45h-30c-8.285156 0-15 6.714844-15 15v120c0 8.285156 6.714844 15 15 15zm30-30h-15v-30h15c8.269531 0 15 6.730469 15 15s-6.730469 15-15 15zm-15-90h15c8.269531 0 15 6.730469 15 15s-6.730469 15-15 15h-15zm0 0" fill="#848484" data-original="#000000" style="" class=""/><path xmlns="http://www.w3.org/2000/svg" d="m285 210h30c24.8125 0 45-20.1875 45-45v-60c0-24.8125-20.1875-45-45-45h-30c-8.285156 0-15 6.714844-15 15v120c0 8.285156 6.714844 15 15 15zm15-120h15c8.269531 0 15 6.730469 15 15v60c0 8.269531-6.730469 15-15 15h-15zm0 0" fill="#848484" data-original="#000000" style="" class=""/></g></svg>
